<svg xmlns="http://www.w3.org/2000/svg" width="390" height="844" viewBox="0 0 390 844" fill="none">
  <rect width="390" height="844" fill="#0F1633"/>
  <text x="32" y="64" fill="#FFFFFF" font-family="Inter, sans-serif" font-size="24" font-weight="600">Progress</text>
  <rect x="24" y="120" width="165" height="130" rx="20" fill="#161D3D" stroke="rgba(255,255,255,0.06)"/>
  <text x="48" y="165" fill="#FF6A1A" font-family="Inter, sans-serif" font-size="36" font-weight="700">87%</text>
  <text x="48" y="200" fill="rgba(255,255,255,0.5)" font-family="Inter, sans-serif" font-size="13">Weekly rate</text>
  <rect x="201" y="120" width="165" height="130" rx="20" fill="#161D3D" stroke="rgba(255,255,255,0.06)"/>
  <text x="225" y="165" fill="#FFFFFF" font-family="Inter, sans-serif" font-size="36" font-weight="700">12</text>
  <text x="225" y="200" fill="rgba(255,255,255,0.5)" font-family="Inter, sans-serif" font-size="13">Day streak</text>
  <text x="32" y="300" fill="#FFFFFF" font-family="Inter, sans-serif" font-size="18" font-weight="600">Last 7 days</text>
  <rect x="24" y="320" width="342" height="200" rx="20" fill="#161D3D" stroke="rgba(255,255,255,0.06)"/>
  <rect x="92" y="420" width="28" height="70" rx="6" fill="#FF6A1A"/>
  <rect x="132" y="440" width="28" height="50" rx="6" fill="#FF6A1A"/>
  <rect x="172" y="400" width="28" height="90" rx="6" fill="#FF6A1A"/>
  <rect x="212" y="430" width="28" height="60" rx="6" fill="#FF6A1A"/>
  <rect x="252" y="410" width="28" height="80" rx="6" fill="#FF6A1A"/>
  <text x="32" y="570" fill="#FFFFFF" font-family="Inter, sans-serif" font-size="18" font-weight="600">Top categories</text>
  <rect x="24" y="590" width="342" height="64" rx="16" fill="#161D3D" stroke="rgba(255,255,255,0.06)"/>
  <text x="48" y="630" fill="#FFFFFF" font-family="Inter, sans-serif" font-size="15" font-weight="500">Fitness</text>
  <text x="320" y="630" fill="#FF6A1A" font-family="Inter, sans-serif" font-size="15" font-weight="600">42%</text>
  <rect x="24" y="666" width="342" height="64" rx="16" fill="#161D3D" stroke="rgba(255,255,255,0.06)"/>
  <text x="48" y="706" fill="#FFFFFF" font-family="Inter, sans-serif" font-size="15" font-weight="500">Learning</text>
  <text x="320" y="706" fill="#FF6A1A" font-family="Inter, sans-serif" font-size="15" font-weight="600">28%</text>
</svg>
